<?xml version="1.0" encoding="utf-8"?>
<!-- Generator: Adobe Illustrator 23.0.2, SVG Export Plug-In . SVG Version: 6.00 Build 0)  -->
<svg version="1.1" id="Layer_1" xmlns="http://www.w3.org/2000/svg" xmlns:xlink="http://www.w3.org/1999/xlink" x="0px" y="0px"
	 viewBox="0 0 845.48 199.08" style="enable-background:new 0 0 845.48 199.08;" xml:space="preserve">
<style type="text/css">
	.st0{fill:#FFFFFF;}
</style>
<g>
	<path class="st0" d="M182.77,169.08v-15.19h7.95c0.92,0,1.73,0.16,2.43,0.49s1.24,0.78,1.63,1.36c0.39,0.58,0.59,1.25,0.59,2.02
		c0,0.72-0.18,1.35-0.54,1.88c-0.36,0.53-0.88,0.94-1.56,1.23v0.08c0.6,0.18,1.11,0.45,1.54,0.81c0.42,0.37,0.75,0.8,0.97,1.3
		s0.34,1.06,0.34,1.67c0,0.86-0.21,1.62-0.64,2.27c-0.42,0.65-1.02,1.16-1.77,1.53c-0.76,0.37-1.64,0.55-2.65,0.55H182.77z
		 M186.3,159.81h3.92c0.54,0,0.94-0.12,1.22-0.37c0.28-0.24,0.41-0.6,0.41-1.06c0-0.47-0.14-0.83-0.41-1.07
		c-0.28-0.24-0.68-0.36-1.22-0.36h-3.92V159.81z M186.3,166h4.16c0.7,0,1.23-0.15,1.59-0.45c0.36-0.3,0.54-0.73,0.54-1.28
		c0-0.55-0.18-0.97-0.54-1.26c-0.36-0.29-0.89-0.43-1.58-0.43h-4.18V166z"/>
	<path class="st0" d="M218.59,169.3c-1.56,0-2.93-0.32-4.1-0.97c-1.17-0.64-2.08-1.55-2.73-2.72c-0.65-1.17-0.98-2.55-0.98-4.13
		c0-1.6,0.32-2.98,0.98-4.15c0.65-1.17,1.56-2.07,2.73-2.71c1.17-0.64,2.53-0.96,4.1-0.96c1.58,0,2.95,0.32,4.12,0.95
		c1.17,0.63,2.07,1.53,2.72,2.7c0.64,1.17,0.97,2.56,0.97,4.17c0,1.59-0.32,2.97-0.98,4.14c-0.65,1.17-1.56,2.08-2.73,2.72
		C221.52,168.99,220.15,169.3,218.59,169.3z M218.61,166.23c1.36,0,2.41-0.43,3.15-1.29c0.74-0.86,1.11-2.01,1.11-3.45
		c0-1.45-0.37-2.6-1.11-3.46c-0.74-0.86-1.79-1.28-3.17-1.28c-1.36,0-2.42,0.43-3.16,1.28c-0.74,0.86-1.12,2-1.12,3.44
		c0,1.45,0.37,2.61,1.12,3.47C216.17,165.8,217.23,166.23,218.61,166.23z"/>
	<path class="st0" d="M241.17,169.08V166h3.41v-12.11h3.53v12.49c0,0.91-0.24,1.59-0.72,2.04c-0.48,0.44-1.17,0.66-2.05,0.66H241.17
		z"/>
	<path class="st0" d="M263.33,169.08l6.39-15.19h3.56l6.32,15.19h-3.62l-1.44-3.45h-6.24l-1.46,3.45H263.33z M269.41,162.7h4.2
		l-2.04-5.03h-0.09L269.41,162.7z"/>
	<path class="st0" d="M309.35,169.08h-3.73l-7.45-9.94h-0.07v9.94h-3.38v-15.19h3.58l7.59,10.22h0.07v-10.22h3.38V169.08z"/>
	<path class="st0" d="M136.47,196.08l-5.98-15.19h3.88l4.16,11.14h0.09l4.11-11.14h3.81l-5.98,15.19H136.47z"/>
	<path class="st0" d="M168.46,196.31c-1.36,0-2.56-0.21-3.59-0.63c-1.03-0.42-1.83-1.07-2.4-1.94c-0.57-0.88-0.85-2.01-0.85-3.4
		v-9.45h3.6v8.89c0,1,0.26,1.79,0.79,2.36c0.53,0.58,1.38,0.86,2.55,0.86c1.21,0,2.07-0.31,2.58-0.92c0.51-0.61,0.76-1.38,0.76-2.29
		v-8.91h3.53v9.49c0,1.99-0.62,3.47-1.86,4.45C172.32,195.82,170.62,196.31,168.46,196.31z"/>
	<path class="st0" d="M198.84,196.38c-1.56,0-2.93-0.32-4.09-0.97c-1.16-0.65-2.06-1.56-2.7-2.74c-0.64-1.18-0.96-2.57-0.96-4.15
		c0-1.6,0.32-2.99,0.96-4.16c0.64-1.18,1.54-2.09,2.7-2.73c1.16-0.65,2.53-0.97,4.09-0.97c1.28,0,2.41,0.22,3.39,0.66
		c0.99,0.44,1.79,1.08,2.42,1.9c0.62,0.83,1.02,1.81,1.18,2.96h-3.67c-0.13-0.76-0.49-1.36-1.08-1.78
		c-0.59-0.43-1.34-0.64-2.24-0.64c-1.3,0-2.33,0.42-3.08,1.26c-0.76,0.84-1.13,2-1.13,3.49c0,1.49,0.38,2.65,1.13,3.49
		c0.76,0.84,1.78,1.26,3.08,1.26c0.9,0,1.65-0.21,2.24-0.64c0.59-0.43,0.95-1.02,1.08-1.78h3.67c-0.16,1.14-0.56,2.12-1.18,2.95
		c-0.62,0.83-1.43,1.47-2.42,1.91C201.25,196.16,200.12,196.38,198.84,196.38z M197.25,179.51l-2.61-3.4v-0.07h2.7l1.54,1.42
		l1.5-1.42h2.66v0.07l-2.57,3.4H197.25z"/>
	<path class="st0" d="M221.03,196.08v-15.19h3.53v5.85h0.07l6.15-5.85h4.31l-6.53,6.13l6.64,9.06h-4.16l-4.95-6.86l-1.54,1.24v5.63
		H221.03z"/>
	<path class="st0" d="M255.91,196.31c-1.56,0-2.93-0.32-4.1-0.97c-1.17-0.64-2.08-1.55-2.73-2.72c-0.65-1.17-0.98-2.55-0.98-4.13
		c0-1.6,0.32-2.98,0.98-4.15c0.65-1.17,1.56-2.07,2.73-2.71c1.17-0.64,2.53-0.96,4.1-0.96c1.58,0,2.95,0.32,4.12,0.95
		c1.17,0.63,2.07,1.53,2.72,2.7c0.64,1.17,0.97,2.56,0.97,4.17c0,1.59-0.32,2.97-0.98,4.14c-0.65,1.17-1.56,2.08-2.73,2.72
		C258.84,195.99,257.47,196.31,255.91,196.31z M255.93,193.23c1.36,0,2.41-0.43,3.15-1.29c0.74-0.86,1.11-2.01,1.11-3.45
		c0-1.45-0.37-2.6-1.11-3.46c-0.74-0.86-1.79-1.28-3.17-1.28c-1.36,0-2.42,0.43-3.16,1.28c-0.74,0.86-1.12,2-1.12,3.44
		c0,1.45,0.37,2.61,1.12,3.47C253.49,192.8,254.55,193.23,255.93,193.23z"/>
	<path class="st0" d="M283.31,196.08l-5.98-15.19h3.88l4.16,11.14h0.09l4.11-11.14h3.81l-5.98,15.19H283.31z"/>
	<path class="st0" d="M308.72,196.08v-15.19h3.53v15.19H308.72z"/>
	<path class="st0" d="M335.93,196.38c-1.56,0-2.93-0.32-4.09-0.97c-1.16-0.65-2.06-1.56-2.7-2.74c-0.64-1.18-0.96-2.57-0.96-4.15
		c0-1.6,0.32-2.99,0.96-4.16c0.64-1.18,1.54-2.09,2.7-2.73c1.16-0.65,2.53-0.97,4.09-0.97c1.28,0,2.41,0.22,3.39,0.66
		c0.99,0.44,1.79,1.08,2.42,1.9c0.62,0.83,1.02,1.81,1.18,2.96h-3.67c-0.13-0.76-0.49-1.36-1.08-1.78
		c-0.59-0.43-1.34-0.64-2.24-0.64c-1.3,0-2.33,0.42-3.08,1.26c-0.76,0.84-1.13,2-1.13,3.49c0,1.49,0.38,2.65,1.13,3.49
		c0.76,0.84,1.78,1.26,3.08,1.26c0.9,0,1.65-0.21,2.24-0.64c0.59-0.43,0.95-1.02,1.08-1.78h3.67c-0.16,1.14-0.56,2.12-1.18,2.95
		s-1.43,1.47-2.42,1.91C338.33,196.16,337.2,196.38,335.93,196.38z M334,179.51v-0.08l2.03-3.39h3.64v0.07l-2.95,3.4H334z"/>
</g>
<g>
	<path class="st0" d="M391.39,182.58c-1.06,0-1.98-0.18-2.77-0.54c-0.78-0.36-1.39-0.87-1.82-1.54c-0.43-0.66-0.65-1.44-0.65-2.33
		c0-0.66,0.14-1.24,0.41-1.74s0.64-0.92,1.1-1.26c0.46-0.34,0.95-0.58,1.49-0.73v-0.08c-0.44-0.16-0.83-0.39-1.17-0.68
		c-0.34-0.29-0.61-0.64-0.81-1.04c-0.19-0.4-0.29-0.83-0.29-1.29c0-1.2,0.43-2.16,1.3-2.88c0.87-0.72,2.05-1.08,3.54-1.08h3v3.08
		h-2.57c-0.57,0-1.01,0.13-1.3,0.37c-0.29,0.25-0.44,0.61-0.44,1.07c0,0.45,0.15,0.8,0.44,1.06c0.29,0.26,0.73,0.38,1.3,0.38h3.38
		v-2.02h3.17v2.04h2.01v2.72h-2.01v6.49H391.39z M391.9,179.51h3.56v-3.41h-3.58c-0.7,0-1.24,0.14-1.62,0.43
		c-0.38,0.29-0.57,0.71-0.57,1.26c0,0.55,0.19,0.97,0.58,1.28C390.65,179.36,391.2,179.51,391.9,179.51z"/>
</g>
<g>
	<path class="st0" d="M489,169.08v-15.19h7.95c0.92,0,1.73,0.16,2.43,0.49c0.69,0.32,1.24,0.78,1.63,1.36
		c0.39,0.58,0.59,1.25,0.59,2.02c0,0.72-0.18,1.35-0.54,1.88c-0.36,0.53-0.88,0.94-1.56,1.23v0.08c0.6,0.18,1.11,0.45,1.54,0.81
		c0.43,0.37,0.75,0.8,0.98,1.3s0.34,1.06,0.34,1.67c0,0.86-0.21,1.62-0.64,2.27c-0.42,0.65-1.02,1.16-1.77,1.53
		c-0.76,0.37-1.64,0.55-2.65,0.55H489z M492.53,159.82h3.92c0.54,0,0.94-0.12,1.22-0.37c0.28-0.24,0.41-0.6,0.41-1.06
		c0-0.47-0.14-0.83-0.41-1.07c-0.28-0.24-0.68-0.36-1.22-0.36h-3.92V159.82z M492.53,166.01h4.16c0.7,0,1.23-0.15,1.59-0.45
		c0.36-0.3,0.54-0.73,0.54-1.28c0-0.55-0.18-0.97-0.54-1.26c-0.36-0.29-0.89-0.43-1.57-0.43h-4.18V166.01z"/>
	<path class="st0" d="M524.82,169.31c-1.56,0-2.93-0.32-4.1-0.97c-1.17-0.64-2.08-1.55-2.73-2.72c-0.65-1.17-0.97-2.55-0.97-4.13
		c0-1.6,0.32-2.98,0.97-4.15s1.56-2.07,2.73-2.71c1.17-0.64,2.54-0.96,4.1-0.96c1.58,0,2.95,0.32,4.12,0.95
		c1.17,0.63,2.08,1.53,2.72,2.7c0.64,1.17,0.97,2.56,0.97,4.17c0,1.59-0.32,2.97-0.97,4.14c-0.65,1.17-1.56,2.08-2.73,2.72
		C527.75,168.99,526.38,169.31,524.82,169.31z M524.84,166.23c1.36,0,2.41-0.43,3.15-1.29c0.74-0.86,1.11-2.01,1.11-3.45
		c0-1.45-0.37-2.6-1.11-3.46c-0.74-0.86-1.8-1.28-3.17-1.28c-1.36,0-2.41,0.43-3.16,1.28c-0.74,0.86-1.12,2-1.12,3.44
		c0,1.45,0.37,2.61,1.12,3.47C522.4,165.8,523.46,166.23,524.84,166.23z"/>
	<path class="st0" d="M547.4,169.08v-3.08h3.41v-12.11h3.53v12.49c0,0.91-0.24,1.59-0.72,2.04c-0.48,0.44-1.17,0.66-2.06,0.66H547.4
		z"/>
	<path class="st0" d="M569.57,169.08l6.39-15.19h3.56l6.32,15.19h-3.62l-1.44-3.45h-6.24l-1.46,3.45H569.57z M575.64,162.71h4.2
		l-2.04-5.03h-0.1L575.64,162.71z"/>
	<path class="st0" d="M615.59,169.08h-3.73l-7.45-9.94h-0.07v9.94h-3.38v-15.19h3.58l7.59,10.22h0.08v-10.22h3.37V169.08z"/>
	<path class="st0" d="M630.7,169.08l6.39-15.19h3.56l6.32,15.19h-3.62l-1.44-3.45h-6.24l-1.46,3.45H630.7z M636.78,162.71h4.2
		l-2.04-5.03h-0.1L636.78,162.71z"/>
	<path class="st0" d="M438.37,196.09V180.9h4.74l4.24,10.2h0.07l4.22-10.2h4.73v15.19h-3.53V186h-0.08l-3.99,10.09h-3.04l-4-10.09
		h-0.07v10.09H438.37z"/>
	<path class="st0" d="M472.99,196.09V180.9h3.53v15.19H472.99z"/>
	<path class="st0" d="M493.13,196.09V180.9h3.53v12.11h7.65v3.08H493.13z"/>
	<path class="st0" d="M518.71,196.09v-3.08h3.41V180.9h3.53v12.49c0,0.91-0.24,1.59-0.72,2.04c-0.48,0.44-1.17,0.66-2.06,0.66
		H518.71z"/>
	<path class="st0" d="M540.87,196.09l6.39-15.19h3.56l6.32,15.19h-3.62l-1.44-3.45h-6.24l-1.46,3.45H540.87z M546.95,189.71h4.2
		l-2.04-5.03h-0.1L546.95,189.71z"/>
	<path class="st0" d="M586.89,196.09h-3.73l-7.45-9.94h-0.07v9.94h-3.38V180.9h3.58l7.59,10.22h0.08V180.9h3.37V196.09z"/>
	<path class="st0" d="M610.52,196.31c-1.56,0-2.93-0.32-4.1-0.97c-1.17-0.64-2.08-1.55-2.73-2.72c-0.65-1.17-0.97-2.55-0.97-4.13
		c0-1.6,0.32-2.98,0.97-4.15s1.56-2.07,2.73-2.71c1.17-0.64,2.54-0.96,4.1-0.96c1.58,0,2.95,0.32,4.12,0.95
		c1.17,0.63,2.08,1.53,2.72,2.7c0.64,1.17,0.97,2.56,0.97,4.17c0,1.59-0.32,2.97-0.97,4.14c-0.65,1.17-1.56,2.08-2.73,2.72
		C613.45,195.99,612.08,196.31,610.52,196.31z M610.54,193.24c1.36,0,2.41-0.43,3.15-1.29c0.74-0.86,1.11-2.01,1.11-3.45
		c0-1.45-0.37-2.6-1.11-3.46c-0.74-0.86-1.8-1.28-3.17-1.28c-1.36,0-2.41,0.43-3.16,1.28c-0.74,0.86-1.12,2-1.12,3.44
		c0,1.45,0.37,2.61,1.12,3.47C608.11,192.8,609.16,193.24,610.54,193.24z"/>
	<path class="st0" d="M637.92,196.09l-5.98-15.19h3.88l4.16,11.14h0.09l4.11-11.14h3.81l-5.98,15.19H637.92z"/>
	<path class="st0" d="M663.33,196.09V180.9h3.53v15.19H663.33z"/>
	<path class="st0" d="M690.54,196.39c-1.56,0-2.93-0.32-4.09-0.97c-1.16-0.65-2.06-1.56-2.7-2.74c-0.64-1.18-0.96-2.57-0.96-4.15
		c0-1.6,0.32-2.99,0.96-4.16c0.64-1.18,1.54-2.09,2.7-2.73c1.16-0.65,2.53-0.97,4.09-0.97c1.27,0,2.41,0.22,3.39,0.66
		s1.79,1.08,2.42,1.9c0.63,0.83,1.02,1.81,1.18,2.96h-3.68c-0.12-0.76-0.49-1.36-1.08-1.78c-0.59-0.43-1.34-0.64-2.24-0.64
		c-1.3,0-2.33,0.42-3.09,1.26c-0.76,0.84-1.13,2-1.13,3.49c0,1.49,0.38,2.65,1.13,3.49s1.78,1.26,3.09,1.26
		c0.9,0,1.65-0.21,2.24-0.64c0.59-0.43,0.96-1.02,1.08-1.78h3.68c-0.16,1.14-0.56,2.12-1.18,2.95s-1.43,1.47-2.42,1.91
		S691.82,196.39,690.54,196.39z M688.61,179.51v-0.08l2.02-3.39h3.64v0.07l-2.95,3.4H688.61z"/>
</g>
<g>
	<path class="st0" d="M1.43,109.32V1.48l91.06-0.3c12,0,20.9,2.5,26.7,7.49c5.8,4.99,8.7,12.48,8.7,22.46s-3.33,17.3-9.98,21.93
		c4.44,2.42,7.71,5.62,9.83,9.6c2.12,3.98,3.18,9.1,3.18,15.35c0,10.18-2.9,17.92-8.7,23.22c-5.8,5.29-14.7,7.94-26.7,7.94
		L1.43,109.32z M89.62,20.54H25.63v24.2h63.98c9.17,0,13.76-4.13,13.76-12.4C103.38,24.47,98.79,20.54,89.62,20.54z M92.64,64.1
		H25.63v25.71h67.01c9.17,0,13.76-4.34,13.76-13.01C106.41,68.33,101.82,64.1,92.64,64.1z"/>
	<path class="st0" d="M145.28,109.32v-77.9h67.91c8.87,0,15.35,2.19,19.44,6.58c4.08,4.39,6.13,10.16,6.13,17.32v54h-21.93V57.9
		c0-6.05-3.03-9.08-9.08-9.08h-40.54v60.5H145.28z"/>
	<path class="st0" d="M256.9,109.32V1.48l91.06-0.3c12,0,20.9,2.5,26.7,7.49c5.8,4.99,8.7,12.48,8.7,22.46s-3.33,17.3-9.98,21.93
		c4.44,2.42,7.71,5.62,9.83,9.6c2.12,3.98,3.18,9.1,3.18,15.35c0,10.18-2.9,17.92-8.7,23.22c-5.8,5.29-14.7,7.94-26.7,7.94
		L256.9,109.32z M345.09,20.54h-63.98v24.2h63.98c9.17,0,13.76-4.13,13.76-12.4C358.85,24.47,354.26,20.54,345.09,20.54z
		 M348.11,64.1h-67.01v25.71h67.01c9.17,0,13.76-4.34,13.76-13.01C361.88,68.33,357.29,64.1,348.11,64.1z"/>
	<path class="st0" d="M401.5,109.32V87.69h24.2v21.63H401.5z"/>
	<path class="st0" d="M445.67,109.32V1.17h24.2v88.49h79.11v19.66H445.67z"/>
	<path class="st0" d="M555.03,109.32L603.73,1.17h37.36l48.71,108.15h-26.32l-10.28-22.84h-61.56l-10.28,22.84H555.03z M600.4,66.82
		h44.02l-21.03-46.74h-1.97L600.4,66.82z"/>
	<path class="st0" d="M704.92,109.32L692.82,1.17h24.2l8.92,78.96l30.1-23.14V1.17h24.2v55.97l29.8,22.99l9.08-78.96h24.2
		l-12.1,108.15h-20.27l-42.81-34.64l-42.96,34.64H704.92z"/>
</g>
</svg>
